<?xml version="1.0" standalone="no"?>
<!DOCTYPE svg PUBLIC "-//W3C//DTD SVG 20010904//EN"
 "http://www.w3.org/TR/2001/REC-SVG-20010904/DTD/svg10.dtd">
<svg version="1.0" xmlns="http://www.w3.org/2000/svg"
 width="300.000000pt" height="300.000000pt" viewBox="0 0 300.000000 300.000000"
 preserveAspectRatio="xMidYMid meet">
<metadata>
Created by potrace 1.11, written by Peter Selinger 2001-2013
</metadata>
<g transform="translate(0.000000,300.000000) scale(0.100000,-0.100000)"
fill="#000000" stroke="none">
<path d="M0 1500 l0 -1500 1500 0 1500 0 0 1500 0 1500 -1500 0 -1500 0 0
-1500z m998 723 c124 -92 64 -287 -89 -287 -87 0 -149 58 -157 146 -3 44 0 59
20 88 40 59 84 82 146 78 32 -3 64 -13 80 -25z m582 5 c57 -39 75 -72 75 -137
0 -73 -33 -121 -99 -146 -53 -20 -99 -15 -146 18 -127 86 -63 287 90 287 32 0
57 -7 80 -22z m591 -1 c123 -83 98 -249 -42 -287 -145 -39 -252 134 -157 255
45 57 139 72 199 32z m-1195 -586 c130 -59 115 -250 -23 -291 -60 -18 -110 -5
-154 39 -60 60 -65 149 -12 212 50 59 117 73 189 40z m617 -14 c98 -74 82
-219 -29 -272 -107 -50 -235 43 -221 161 13 121 155 184 250 111z m585 6 c51
-38 67 -70 67 -133 0 -44 -5 -66 -21 -86 -53 -72 -128 -91 -204 -52 -55 29
-84 75 -84 138 0 63 29 109 84 138 53 27 117 25 158 -5z m-1183 -593 c90 -56
92 -197 3 -263 -16 -12 -48 -22 -80 -25 -44 -3 -59 0 -88 20 -73 50 -98 126
-66 201 36 86 147 118 231 67z m571 11 c61 -28 89 -73 89 -143 0 -42 -5 -64
-21 -85 -73 -98 -195 -98 -268 0 -31 42 -29 130 3 176 26 36 90 71 131 71 14
0 43 -9 66 -19z m608 -9 c46 -27 69 -66 74 -124 4 -61 -19 -106 -77 -145 -113
-77 -268 41 -231 176 27 101 141 146 234 93z"/>
</g>
</svg>
