<?xml version="1.0" standalone="no"?>
<!DOCTYPE svg PUBLIC "-//W3C//DTD SVG 20010904//EN"
 "http://www.w3.org/TR/2001/REC-SVG-20010904/DTD/svg10.dtd">
<svg version="1.0" xmlns="http://www.w3.org/2000/svg"
 width="260.000000pt" height="260.000000pt" viewBox="0 0 260.000000 260.000000"
 preserveAspectRatio="xMidYMid meet">
<metadata>
Created by potrace 1.11, written by Peter Selinger 2001-2013
</metadata>
<g transform="translate(0.000000,260.000000) scale(0.100000,-0.100000)"
fill="#000000" stroke="none">
<path d="M1027 2531 c-33 -19 -56 -61 -53 -96 2 -14 -2 -25 -8 -25 -6 0 -4 -5
4 -10 9 -6 11 -10 3 -10 -7 0 -10 -6 -8 -12 13 -38 14 -88 2 -88 -9 0 -8 -3 2
-9 9 -6 10 -10 2 -16 -9 -5 -9 -10 0 -21 9 -11 9 -14 0 -14 -7 0 -9 -4 -6 -10
3 -5 2 -10 -3 -10 -4 0 -8 -16 -7 -35 1 -19 -2 -32 -6 -29 -5 3 -10 0 -10 -5
-1 -6 -2 -15 -3 -21 0 -5 -9 -18 -18 -29 -9 -11 -14 -22 -11 -25 4 -3 0 -6 -7
-6 -7 0 -11 -3 -8 -6 6 -5 -26 -60 -52 -91 -5 -7 -10 -17 -10 -23 0 -6 -5 -8
-10 -5 -6 4 -9 3 -8 -2 4 -16 -14 -53 -23 -48 -5 4 -9 -1 -9 -10 0 -9 -4 -13
-10 -10 -6 3 -7 -1 -4 -9 3 -9 2 -16 -3 -16 -9 0 -39 -46 -43 -65 -1 -5 -6 -9
-11 -7 -5 1 -9 -5 -9 -13 0 -8 -5 -15 -11 -15 -5 0 -7 -4 -4 -10 3 -5 1 -10
-5 -10 -6 0 -9 -4 -6 -9 3 -5 -1 -12 -10 -15 -8 -3 -13 -10 -10 -14 3 -5 -3
-18 -12 -28 -18 -19 -29 -41 -30 -58 0 -5 -4 -12 -9 -15 -10 -7 -46 -79 -49
-100 -2 -8 -11 -26 -22 -40 -16 -22 -27 -26 -73 -26 -30 -1 -60 4 -68 10 -11
7 -13 7 -9 -1 5 -7 -15 -10 -59 -8 -72 2 -93 -9 -95 -48 -1 -13 -5 -27 -8 -33
-4 -5 -8 -35 -9 -65 -5 -114 -6 -125 -16 -132 -6 -5 -6 -8 1 -8 13 0 12 -58
-1 -80 -5 -8 -4 -11 2 -7 12 8 11 -58 0 -70 -4 -3 -7 -11 -7 -17 0 -6 4 -5 9
3 6 10 9 -3 9 -40 -2 -120 5 -245 14 -263 7 -13 7 -16 -1 -12 -6 4 -11 2 -11
-3 0 -6 4 -11 9 -11 5 0 9 -16 9 -35 0 -20 6 -43 13 -52 12 -14 12 -16 -1 -8
-13 8 -13 6 -2 -8 8 -9 11 -21 7 -27 -3 -5 1 -10 10 -10 9 0 14 -4 10 -9 -3
-6 14 -9 39 -8 25 1 42 5 39 11 -4 5 -1 6 8 0 24 -14 51 -16 43 -2 -6 10 -5
10 7 1 12 -10 18 -10 29 0 7 6 10 7 7 1 -4 -7 6 -11 25 -12 24 -1 28 2 18 8
-8 6 -10 10 -5 10 6 0 17 -6 23 -12 10 -10 15 -10 22 2 7 10 10 11 10 3 0 -7
12 -13 26 -13 14 0 35 -5 46 -11 16 -9 19 -8 13 2 -5 6 14 -3 41 -21 27 -19
51 -37 52 -42 2 -4 13 -8 25 -8 11 0 17 -3 14 -7 -4 -3 17 -17 46 -31 28 -13
64 -30 78 -38 14 -7 29 -11 33 -7 3 3 6 1 6 -5 0 -7 5 -12 11 -12 5 0 7 6 4
12 -4 7 -1 6 7 -2 7 -9 21 -14 32 -12 10 2 16 0 13 -5 -4 -6 6 -9 21 -8 15 1
33 -2 40 -8 8 -6 12 -5 12 3 0 9 3 10 13 1 10 -8 17 -7 27 2 10 9 11 9 6 -1
-5 -9 9 -12 56 -13 35 -1 68 0 73 1 6 1 49 2 98 3 48 0 87 4 87 8 0 5 12 4 26
-1 14 -6 23 -6 20 -1 -3 5 9 7 27 6 17 -2 38 2 46 9 11 8 13 8 8 -1 -5 -8 6
-10 38 -8 24 1 42 -2 39 -6 -3 -5 6 -9 20 -9 14 0 28 -5 31 -10 4 -6 11 -8 16
-5 5 4 9 2 9 -3 0 -8 6 -10 49 -14 11 -1 17 -6 15 -10 -5 -7 19 -12 53 -11 7
1 10 -4 6 -10 -4 -6 2 -8 15 -5 12 4 20 2 17 -2 -3 -5 19 -16 49 -24 30 -9 56
-20 58 -26 2 -5 18 -10 36 -12 17 -1 32 -5 32 -9 0 -4 16 -10 35 -13 19 -4 35
-11 35 -17 0 -6 4 -8 8 -5 5 3 19 0 33 -7 13 -7 36 -12 52 -11 15 1 27 -2 27
-6 0 -7 48 -5 87 4 31 7 74 37 67 47 -3 5 1 12 9 15 9 3 14 22 16 53 1 40 -3
53 -24 72 -13 13 -25 30 -25 37 0 7 -4 10 -10 7 -5 -3 -10 -1 -10 4 0 6 -7 11
-15 11 -8 0 -15 5 -15 12 0 6 -3 8 -7 5 -3 -4 -13 -1 -22 6 -19 16 -118 57
-137 57 -8 0 -14 5 -14 10 0 6 -3 9 -7 8 -5 -1 -23 3 -41 9 -18 7 -35 11 -38
10 -3 -1 -9 5 -14 14 -6 10 -20 15 -35 14 -14 -2 -25 1 -25 6 0 5 -11 9 -24 9
-13 0 -26 5 -28 10 -2 6 -13 12 -26 13 -12 0 -22 5 -22 9 0 4 -5 8 -11 8 -5 0
-7 -6 -4 -12 4 -7 0 -5 -8 5 -8 9 -20 17 -26 17 -9 0 -8 4 1 14 9 9 20 11 35
5 16 -6 23 -5 23 4 0 8 4 7 10 -3 5 -8 10 -10 10 -3 0 6 8 10 18 8 9 -1 23 2
30 8 6 5 12 7 12 3 0 -3 9 2 21 12 25 20 61 87 52 96 -4 3 -1 6 5 6 7 0 11 18
11 50 -1 28 -6 50 -11 50 -5 0 -6 4 -3 10 3 5 0 20 -7 32 -7 13 -11 26 -10 31
1 4 -4 7 -11 7 -7 0 -19 9 -27 19 -7 11 -17 18 -21 16 -4 -3 -9 2 -13 10 -3 9
0 15 9 15 8 0 15 4 15 9 0 5 9 13 20 16 11 4 18 11 15 16 -4 5 -2 9 3 9 13 0
34 59 25 73 -3 5 -2 7 4 4 6 -4 10 10 11 34 1 27 -2 38 -9 33 -8 -4 -8 0 0 15
9 16 9 21 0 21 -6 0 -9 7 -5 15 3 8 1 15 -4 15 -5 0 -15 12 -22 28 -7 15 -17
25 -21 22 -5 -3 -13 3 -18 13 -6 9 -17 17 -24 17 -8 0 -15 5 -15 10 0 6 -12
10 -27 10 -31 0 -26 10 8 14 52 7 84 20 112 48 17 15 26 28 22 28 -5 0 0 7 11
16 10 8 12 12 4 8 -13 -7 -13 -5 -1 9 7 9 12 33 12 54 -1 21 -2 46 -2 56 0 9
-6 17 -12 17 -8 0 -8 3 1 9 11 6 10 10 -3 15 -10 3 -15 12 -11 21 3 8 2 14 -2
12 -9 -3 -63 39 -57 45 2 2 -4 4 -13 4 -9 0 -30 3 -45 7 -22 6 -27 5 -21 -5 6
-10 3 -9 -9 1 -9 7 -17 10 -17 5 0 -5 -5 -2 -10 6 -5 8 -10 10 -10 4 0 -6 -17
-10 -40 -10 -22 1 -40 -3 -40 -9 0 -5 -4 -4 -9 4 -5 8 -11 9 -15 3 -4 -6 -16
-9 -27 -7 -12 3 -30 0 -40 -6 -11 -5 -19 -6 -19 -1 0 5 -7 9 -15 9 -8 0 -12
-4 -10 -8 3 -4 -29 -7 -71 -8 -41 -1 -73 3 -70 7 3 5 -1 9 -9 9 -8 0 -12 -4
-8 -9 3 -6 -9 -7 -28 -3 -19 3 -42 7 -51 9 -10 1 -21 5 -24 9 -4 4 -14 1 -22
-6 -13 -9 -14 -9 -8 1 5 8 1 12 -13 12 -11 0 -23 5 -26 10 -4 6 -15 8 -26 5
-14 -5 -19 -2 -19 11 0 10 -3 14 -7 11 -6 -7 -29 20 -33 38 -1 6 -7 17 -14 25
-11 14 -13 73 -3 110 12 41 33 80 44 80 7 0 10 7 7 15 -4 8 -1 15 6 15 6 0 9
4 6 9 -3 5 1 14 9 21 8 7 15 19 15 26 0 8 5 14 12 14 6 0 8 3 5 7 -4 3 0 17 9
31 9 13 11 22 5 18 -5 -4 -4 6 4 21 8 15 15 41 15 56 0 20 4 26 13 21 7 -5 7
-1 -2 10 -13 15 -13 19 0 27 11 7 11 9 1 9 -7 0 -12 8 -11 18 4 39 -2 73 -11
67 -5 -3 -8 9 -6 29 1 19 -1 33 -6 30 -4 -3 -10 7 -14 21 -3 14 -10 25 -15 25
-5 0 -9 9 -9 21 0 11 -3 18 -7 16 -5 -3 -14 1 -21 9 -7 8 -10 14 -7 14 4 0 0
7 -9 15 -8 8 -19 15 -24 15 -5 0 -15 6 -21 13 -6 8 -24 13 -40 12 -17 -1 -28
1 -26 5 3 4 -6 8 -20 8 -16 0 -22 -5 -18 -12 5 -8 3 -8 -8 0 -10 9 -21 7 -42
-5z"/>
</g>
</svg>
