<?xml version="1.0" standalone="no"?>
<!DOCTYPE svg PUBLIC "-//W3C//DTD SVG 20010904//EN"
 "http://www.w3.org/TR/2001/REC-SVG-20010904/DTD/svg10.dtd">
<svg version="1.0" xmlns="http://www.w3.org/2000/svg"
 width="300.000000pt" height="300.000000pt" viewBox="0 0 300.000000 300.000000"
 preserveAspectRatio="xMidYMid meet">
<metadata>
Created by potrace 1.11, written by Peter Selinger 2001-2013
</metadata>
<g transform="translate(0.000000,300.000000) scale(0.100000,-0.100000)"
fill="#000000" stroke="none">
<path d="M0 1500 l0 -1500 1500 0 1500 0 0 1500 0 1500 -1500 0 -1500 0 0
-1500z m990 728 c50 -34 72 -71 77 -125 8 -96 -74 -178 -170 -170 -153 13
-203 214 -74 296 45 29 123 28 167 -1z m580 0 c56 -29 84 -75 83 -139 -1 -89
-62 -149 -153 -149 -91 0 -152 60 -153 149 -1 30 6 60 19 82 21 37 92 79 134
79 14 0 46 -10 70 -22z m606 1 c130 -80 81 -283 -73 -296 -96 -8 -178 74 -170
170 10 118 144 187 243 126z m-1179 -595 c52 -39 68 -71 68 -134 0 -90 -53
-149 -143 -158 -167 -16 -238 211 -93 297 45 27 128 25 168 -5z m584 3 c106
-71 106 -203 0 -274 -98 -66 -241 15 -241 137 0 87 73 160 160 160 32 0 58 -7
81 -23z m589 2 c105 -59 105 -219 0 -278 -153 -86 -315 107 -203 240 51 60
135 76 203 38z m-1185 -592 c22 -12 50 -40 63 -62 59 -101 -18 -235 -135 -235
-95 0 -163 64 -163 153 0 129 125 206 235 144z m1193 -4 c95 -70 96 -205 3
-269 -98 -67 -238 2 -248 123 -8 96 74 178 170 170 27 -2 60 -13 75 -24z
m-602 1 c71 -34 100 -142 58 -215 -21 -37 -92 -79 -134 -79 -42 0 -113 42
-134 79 -42 73 -13 180 57 215 41 20 110 20 153 0z"/>
</g>
</svg>
