<?xml version="1.0" standalone="no"?>
<!DOCTYPE svg PUBLIC "-//W3C//DTD SVG 20010904//EN"
 "http://www.w3.org/TR/2001/REC-SVG-20010904/DTD/svg10.dtd">
<svg version="1.0" xmlns="http://www.w3.org/2000/svg"
 width="260.000000pt" height="260.000000pt" viewBox="0 0 260.000000 260.000000"
 preserveAspectRatio="xMidYMid meet">
<metadata>
Created by potrace 1.11, written by Peter Selinger 2001-2013
</metadata>
<g transform="translate(0.000000,260.000000) scale(0.100000,-0.100000)"
fill="#000000" stroke="none">
<path d="M1070 2570 c-497 -93 -893 -460 -1019 -943 -29 -111 -36 -175 -36
-327 0 -181 11 -255 57 -399 141 -436 508 -764 970 -867 102 -23 347 -27 463
-8 423 70 779 337 963 724 37 79 83 214 96 285 3 17 9 44 12 60 4 17 8 100 10
185 3 167 -13 287 -57 420 -120 362 -402 662 -753 799 -88 35 -135 48 -271 77
-16 4 -100 8 -185 9 -117 2 -178 -1 -250 -15z m-80 -709 c14 -10 37 -35 51
-57 85 -123 50 -350 -63 -410 -76 -40 -153 1 -201 106 -30 65 -29 196 2 266
48 110 136 149 211 95z m727 21 c27 -4 82 -65 103 -114 28 -64 35 -170 15
-235 -55 -181 -210 -207 -290 -48 -26 53 -30 71 -30 145 0 90 12 133 53 188
41 57 79 73 149 64z m497 -537 c50 -38 6 -297 -79 -465 -137 -271 -417 -472
-707 -507 -551 -66 -1031 332 -1062 882 -4 73 15 105 65 105 41 0 56 -27 63
-114 27 -355 267 -642 611 -732 94 -24 292 -25 390 -1 300 74 551 341 599 637
4 25 9 54 11 65 2 11 4 39 4 63 1 31 7 49 25 67 25 25 46 25 80 0z"/>
</g>
</svg>
