<?xml version="1.0" standalone="no"?>
<!DOCTYPE svg PUBLIC "-//W3C//DTD SVG 20010904//EN"
 "http://www.w3.org/TR/2001/REC-SVG-20010904/DTD/svg10.dtd">
<svg version="1.0" xmlns="http://www.w3.org/2000/svg"
 width="160.000000pt" height="160.000000pt" viewBox="0 0 160.000000 160.000000"
 preserveAspectRatio="xMidYMid meet">
<metadata>
Created by potrace 1.11, written by Peter Selinger 2001-2013
</metadata>
<g transform="translate(0.000000,160.000000) scale(0.100000,-0.100000)"
fill="#000000" stroke="none">
<path d="M620 1548 c-11 -10 -20 -26 -21 -36 0 -9 -2 -51 -3 -92 -3 -91 -8
-102 -113 -262 -46 -70 -83 -132 -83 -137 0 -6 -4 -11 -9 -11 -4 0 -22 -31
-39 -70 l-30 -69 -83 0 c-45 0 -86 -4 -91 -9 -34 -34 -27 -506 8 -563 2 -4 35
-8 72 -7 127 1 136 -1 207 -44 129 -77 145 -81 370 -83 l200 -2 100 -36 c55
-20 108 -41 117 -47 32 -19 153 -47 183 -43 37 5 64 38 65 77 0 37 -50 84
-116 110 -27 10 -62 24 -79 31 -16 7 -64 26 -105 41 l-74 29 47 7 c51 7 71 19
88 51 27 50 16 124 -23 151 -21 15 -21 15 6 46 14 17 27 39 27 48 1 9 3 28 4
41 4 36 -24 81 -62 99 l-34 16 37 11 c70 19 97 97 58 164 -21 36 -58 49 -125
45 -30 -2 -96 -5 -147 -8 -206 -9 -286 58 -217 184 66 120 77 174 52 261 -21
72 -68 118 -125 123 -30 2 -47 -2 -62 -16z"/>
</g>
</svg>
