<?xml version="1.0" standalone="no"?>
<!DOCTYPE svg PUBLIC "-//W3C//DTD SVG 20010904//EN"
 "http://www.w3.org/TR/2001/REC-SVG-20010904/DTD/svg10.dtd">
<svg version="1.0" xmlns="http://www.w3.org/2000/svg"
 width="160.000000pt" height="160.000000pt" viewBox="0 0 160.000000 160.000000"
 preserveAspectRatio="xMidYMid meet">
<metadata>
Created by potrace 1.11, written by Peter Selinger 2001-2013
</metadata>
<g transform="translate(0.000000,160.000000) scale(0.100000,-0.100000)"
fill="#000000" stroke="none">
<path d="M655 1585 c-165 -36 -319 -133 -419 -265 -44 -57 -103 -168 -111
-208 -2 -12 -6 -25 -8 -30 -19 -30 -29 -249 -16 -317 4 -17 17 -54 29 -82 l22
-51 -20 -20 c-43 -43 -54 -144 -23 -214 34 -78 103 -125 191 -132 l45 -3 2
-84 c2 -77 4 -86 28 -106 30 -26 101 -48 200 -62 73 -10 438 -7 490 3 77 16
136 38 159 59 23 20 26 31 28 106 l3 84 52 3 c54 3 87 19 136 63 44 40 62 88
62 162 0 54 -5 72 -27 106 l-27 41 26 63 c22 52 27 83 29 169 6 226 -82 424
-252 564 -78 64 -187 122 -269 142 -16 4 -37 9 -45 11 -41 11 -231 10 -285 -2z"/>
</g>
</svg>
